<svg xmlns="http://www.w3.org/2000/svg" width="174" height="19" fill="none" viewBox="0 0 174 19"><path fill="url(#a)" d="M17.08 19h4.615c.228 0 .43-.157.483-.38L26.532.595a.482.482 0 0 0-.47-.595h-5.147a.48.48 0 0 0-.472.382l-3.846 18.019c-.065.308.17.599.486.599z"/><path fill="#fff" d="M16.599 18.535 20.445.516a.484.484 0 0 1 .472-.382h5.147a.48.48 0 0 1 .475.414.48.48 0 0 0-.475-.548h-5.147a.48.48 0 0 0-.472.382l-3.846 18.019a.5.5 0 0 0-.005.17q-.001-.018.005-.036" opacity="0.25"/><path fill="url(#b)" d="M20.396 9.07c-2.091-4.57-5.362-5.252-7.126-5.252S8.235 4.5 6.144 9.07c-1.122 2.45-1.738 5.689-1.791 9.397a.525.525 0 0 0 .523.534h4.572c.284 0 .52-.227.524-.511.047-2.873.5-5.374 1.283-7.089.6-1.31 1.276-1.971 2.015-1.971s1.415.664 2.015 1.971c.788 1.722 1.24 4.239 1.282 7.129.005.261.22.471.482.471h4.654a.48.48 0 0 0 .484-.485c-.05-3.728-.667-6.985-1.794-9.446z"/><path fill="#fff" d="M6.146 9.203c2.09-4.569 5.361-5.25 7.126-5.25 1.764 0 5.035.681 7.126 5.25 1.115 2.437 1.73 5.656 1.79 9.34q.002-.015.003-.028c-.05-3.728-.667-6.985-1.793-9.446-2.091-4.569-5.362-5.25-7.126-5.25s-5.035.681-7.126 5.25c-1.122 2.45-1.738 5.689-1.792 9.397q0 .015.003.03c.065-3.664.678-6.867 1.789-9.293" opacity="0.4"/><path fill="url(#c)" d="M9.482 19H4.838a.484.484 0 0 1-.47-.369L.014.595A.48.48 0 0 1 .484 0h5.147c.228 0 .425.159.472.382L9.954 18.42a.483.483 0 0 1-.472.583z"/><path fill="#fff" d="M.48.134h5.147c.228 0 .425.159.472.382L9.95 18.553s0 .022.002.034a.5.5 0 0 0-.002-.168L6.1.382A.48.48 0 0 0 5.63 0H.48a.48.48 0 0 0-.475.548A.48.48 0 0 1 .48.134" opacity="0.5"/><path fill="#202936" d="M99.334 6.725c0-2.36-1.653-4.285-3.728-4.392v-.005h-7.29v14.715h2.88v-5.919h1.782l3.136 5.92h3.215l-3.18-5.998c1.81-.385 3.18-2.173 3.18-4.319zM94.957 8.37h-3.76V5.078h3.76c.79 0 1.43.737 1.43 1.645 0 .907-.64 1.645-1.43 1.645zM37.505 6.866v10.177h-2.9V2.328h3.498l5.424 10.233V2.328h2.9v14.715H42.89zM52.339 14.055l-.936 2.988h-3.05l4.77-14.715h3.852l4.769 14.715h-3.05l-.935-2.988h-5.425zm2.71-8.982-1.85 6.219H56.9zM73.823 2.328l-4.77 14.715h-3.758L60.526 2.328h2.956l3.685 11.43 3.703-11.43h2.955zM86.07 14.278v2.763H75.691V2.328h10.38v2.763h-7.5v2.745h6.116v2.763H78.57v3.679zM119.207 2.328 118 9.658c-.958-2.283-2.489-3.539-4.538-3.539-2.048 0-3.58 1.256-4.538 3.539l-1.206-7.33h-3.014l2.738 14.715h2.855c0-4.824 1.186-8.058 3.163-8.058s3.163 3.234 3.163 8.058h2.855l2.738-14.715h-3.014zM123.638 8.414c0-3.511 1.777-6.33 5.928-6.33s5.928 2.819 5.928 6.33v2.558c0 3.491-1.777 6.312-5.928 6.312s-5.928-2.819-5.928-6.312zm8.921.112c0-2.334-.786-3.68-2.993-3.68s-2.993 1.344-2.993 3.68v2.334c0 2.316.786 3.659 2.993 3.659s2.993-1.344 2.993-3.66zM148.831 6.725c0-2.36-1.653-4.285-3.728-4.392v-.005h-7.29v14.715h2.88v-5.919h1.782l3.136 5.92h3.215l-3.179-5.998c1.809-.385 3.179-2.173 3.179-4.319zm-4.377 1.645h-3.759V5.078h3.759c.79 0 1.43.737 1.43 1.645 0 .907-.64 1.645-1.43 1.645zM168.442 17.284c-3.752 0-5.563-2.204-5.563-4.873h3.042c.056 1.549 1.214 2.11 2.521 2.11 1.7 0 2.353-.765 2.353-1.513 0-.823-.521-1.252-1.679-1.661l-2.353-.84c-2.556-.915-3.434-2.149-3.454-4.183-.018-2.41 1.773-4.238 5.003-4.238 3.771 0 5.322 2.41 5.322 4.705h-3.042c-.168-1.42-1.008-1.942-2.277-1.942-1.364 0-2.073.652-2.073 1.475 0 .896.671 1.176 2.129 1.699l2.203.784c2.185.785 3.154 2.204 3.154 4.147 0 2.465-1.923 4.332-5.283 4.332zM162.241 2.328h-3.347l-3.723 5.92h-1.068v-5.92h-2.879v14.715h2.879v-5.919h1.068l3.913 5.92h3.347l-4.863-7.36z"/><defs><linearGradient id="a" x1="16.8901" x2="25.7999" y1="18.962" y2="-0.171604" gradientUnits="userSpaceOnUse"><stop stop-color="#0563EB"/><stop offset="1" stop-color="#6040FF"/></linearGradient><linearGradient id="b" x1="4.3526" x2="22.189" y1="11.4094" y2="11.4094" gradientUnits="userSpaceOnUse"><stop stop-color="#00BEFF"/><stop offset="1" stop-color="#0093FF"/></linearGradient><linearGradient id="c" x1="0.723565" x2="9.63343" y1="-0.160941" y2="18.9794" gradientUnits="userSpaceOnUse"><stop stop-color="#00E355"/><stop offset="1" stop-color="#00CF62"/></linearGradient></defs></svg>